<svg xmlns="http://www.w3.org/2000/svg" viewBox="0 0 500 500"><g id="freepik--background-complete--inject-64"><polygon points="134.51 193.64 134.51 201.14 142.01 201.14 142.01 193.64 142.01 186.15 134.51 186.15 134.51 193.64" style="fill:#ebebeb"></polygon><rect x="134.51" y="148.67" width="7.5" height="7.5" style="fill:#ebebeb"></rect><rect x="180.83" y="231.2" width="7.5" height="7.5" style="fill:#ebebeb"></rect><polygon points="142.01 163.66 142.01 171.15 134.51 171.15 134.51 178.65 142.01 178.65 142.01 186.15 149.51 186.15 157 186.15 157 193.64 164.5 193.64 164.5 186.15 171.99 186.15 171.99 178.65 171.99 171.15 164.5 171.15 164.5 178.65 157 178.65 149.51 178.65 149.51 171.15 149.51 163.66 149.51 156.16 142.01 156.16 142.01 163.66" style="fill:#ebebeb"></polygon><polygon points="157 148.67 149.51 148.67 149.51 156.16 157 156.16 164.5 156.16 164.5 148.67 157 148.67" style="fill:#ebebeb"></polygon><polygon points="190.73 208.93 194.76 208.93 194.76 201.43 190.73 201.43 186.71 201.43 186.71 208.93 190.73 208.93" style="fill:#ebebeb"></polygon><rect x="164.5" y="156.16" width="7.5" height="7.5" style="fill:#ebebeb"></rect><rect x="216.97" y="186.15" width="7.5" height="7.5" style="fill:#ebebeb"></rect><rect x="224.47" y="103.69" width="7.5" height="7.5" style="fill:#ebebeb"></rect><polygon points="186.99 163.66 186.99 156.16 194.48 156.16 194.48 148.67 186.99 148.67 186.99 141.17 179.49 141.17 179.49 148.67 171.99 148.67 171.99 156.16 179.49 156.16 179.49 163.66 179.49 171.15 179.49 178.65 179.49 186.15 186.99 186.15 186.99 178.65 186.99 171.15 194.48 171.15 194.48 163.66 186.99 163.66" style="fill:#ebebeb"></polygon><polygon points="224.47 238.62 231.96 238.62 231.96 231.12 224.47 231.12 216.97 231.12 216.97 238.62 224.47 238.62" style="fill:#ebebeb"></polygon><rect x="209.47" y="103.69" width="7.5" height="7.5" style="fill:#ebebeb"></rect><polygon points="215.1 163.66 215.1 156.16 207.6 156.16 207.6 148.67 200.1 148.67 200.1 156.16 200.1 163.66 192.61 163.66 192.61 171.15 200.1 171.15 207.6 171.15 207.6 163.66 215.1 163.66" style="fill:#ebebeb"></polygon><rect x="249.91" y="148.67" width="7.5" height="7.5" style="fill:#ebebeb"></rect><rect x="172.21" y="186.15" width="7.5" height="7.5" style="fill:#ebebeb"></rect><polygon points="209.47 141.17 209.47 133.67 216.97 133.67 216.97 126.18 224.47 126.18 231.96 126.18 231.96 118.68 224.47 118.68 224.47 111.19 216.97 111.19 216.97 118.68 209.47 118.68 209.47 126.18 201.98 126.18 201.98 133.67 194.48 133.67 194.48 141.17 201.98 141.17 209.47 141.17" style="fill:#ebebeb"></polygon><polygon points="209.47 193.64 209.47 186.15 216.97 186.15 216.97 178.65 209.47 178.65 201.98 178.65 201.98 186.15 194.48 186.15 194.48 193.64 201.98 193.64 209.47 193.64" style="fill:#ebebeb"></polygon><polygon points="231.96 223.62 231.96 216.13 224.47 216.13 216.97 216.13 216.97 208.63 209.47 208.63 209.47 216.13 201.98 216.13 201.98 223.62 194.48 223.62 186.99 223.62 186.99 231.12 194.48 231.12 201.98 231.12 209.47 231.12 209.47 223.62 216.97 223.62 216.97 231.12 224.47 231.12 224.47 223.62 231.96 223.62" style="fill:#ebebeb"></polygon><polygon points="201.98 111.19 201.98 103.69 194.48 103.69 186.99 103.69 186.99 111.19 179.49 111.19 179.49 118.68 186.99 118.68 194.48 118.68 194.48 111.19 201.98 111.19" style="fill:#ebebeb"></polygon><rect x="194.48" y="118.68" width="7.5" height="7.5" style="fill:#ebebeb"></rect><polygon points="220.72 148.67 213.22 148.67 213.22 156.16 213.22 163.66 213.22 171.15 220.72 171.15 228.22 171.15 228.22 163.66 220.72 163.66 220.72 156.16 228.22 156.16 228.22 148.67 235.71 148.67 235.71 141.17 228.22 141.17 228.22 133.67 220.72 133.67 220.72 141.17 220.72 148.67" style="fill:#ebebeb"></polygon><rect x="186.99" y="126.18" width="7.5" height="7.5" style="fill:#ebebeb"></rect><polygon points="216.97 201.14 216.97 208.63 224.47 208.63 231.96 208.63 231.96 201.14 239.46 201.14 246.96 201.14 246.96 193.64 239.46 193.64 231.96 193.64 224.47 193.64 224.47 201.14 216.97 201.14" style="fill:#ebebeb"></polygon><rect x="249.91" y="171.15" width="7.5" height="7.5" style="fill:#ebebeb"></rect><rect x="224.47" y="178.65" width="7.5" height="7.5" style="fill:#ebebeb"></rect><polygon points="250.7 156.16 243.21 156.16 235.71 156.16 235.71 163.66 243.21 163.66 243.21 171.15 250.7 171.15 250.7 163.66 250.7 156.16" style="fill:#ebebeb"></polygon><rect x="239.46" y="178.65" width="7.5" height="7.5" style="fill:#ebebeb"></rect><path d="M164.5,223.77H187V193.63H156.86v7.51h-7.35v7.49h7.35v7.5h-7.35v7.5h7.35v.14H157v7.35h-7.49v15H157v-7.5h7.5V223.77Zm16.72-24.36v18.74H162.48V199.41Z" style="fill:#ebebeb"></path><polygon points="261.95 193.64 269.44 193.64 269.44 186.15 261.95 186.15 254.45 186.15 246.96 186.15 246.96 193.64 254.45 193.64 261.95 193.64" style="fill:#ebebeb"></polygon><polygon points="261.95 163.66 269.44 163.66 269.44 156.16 269.44 148.67 261.95 148.67 261.95 156.16 261.95 163.66" style="fill:#ebebeb"></polygon><polygon points="202.26 201.43 194.76 201.43 194.76 208.93 194.76 216.42 202.26 216.42 202.26 208.93 202.26 201.43" style="fill:#ebebeb"></polygon><rect x="269.44" y="193.64" width="7.5" height="7.5" style="fill:#ebebeb"></rect><polygon points="276.94 178.65 276.94 171.15 269.44 171.15 269.44 178.65 269.44 186.15 276.94 186.15 276.94 178.65" style="fill:#ebebeb"></polygon><polygon points="142.01 231.12 134.51 231.12 134.51 238.62 134.51 246.12 142.01 246.12 142.01 238.62 142.01 231.12" style="fill:#ebebeb"></polygon><path d="M276.94,141.17V103.69H239.46v37.48Zm-31.86-5.62V109.31h26.24v26.24Z" style="fill:#ebebeb"></path><rect x="250.7" y="114.93" width="14.99" height="14.99" style="fill:#ebebeb"></rect><path d="M276.94,208.63H239.46v37.49h37.48Zm-31.86,31.86V214.26h26.24v26.23Z" style="fill:#ebebeb"></path><rect x="250.7" y="219.88" width="14.99" height="14.99" style="fill:#ebebeb"></rect><path d="M134.42,103.69v37.48H171.9V103.69Zm31.86,5.62v26.24H140V109.31Z" style="fill:#ebebeb"></path><rect x="145.66" y="114.93" width="14.99" height="14.99" style="fill:#ebebeb"></rect><circle cx="71.06" cy="250.48" r="3.55" transform="translate(-189.21 257.6) rotate(-75.73)" style="fill:#ebebeb"></circle><path d="M64,245.94a9.84,9.84,0,0,1,14.23-.19c1.81,1.83,4.64-1,2.83-2.81a13.87,13.87,0,0,0-19.87.16c-1.77,1.86,1,4.7,2.81,2.84Z" style="fill:#ebebeb"></path><path d="M51.92,229.42c5.39-4.66,11.83-7.6,19-7.62a28.22,28.22,0,0,1,19.43,7.44c1.87,1.76,4.71-1.05,2.84-2.81A32.42,32.42,0,0,0,71,217.81c-8.3,0-15.68,3.41-21.88,8.78-2,1.68.87,4.5,2.81,2.83Z" style="fill:#ebebeb"></path><path d="M56.67,238.57a19.53,19.53,0,0,1,28.69-.41c1.8,1.85,4.63-1,2.84-2.8a23.51,23.51,0,0,0-34.34.38c-1.74,1.88,1.06,4.72,2.81,2.83Z" style="fill:#ebebeb"></path><path d="M228.1,56.43c.6-4.38-5.59-8-10.24-8.37-2.22-.18-4.52.16-6.62-.57-4.56-1.59-6.38-7.47-10.82-9.34-3.32-1.4-7.15-.16-10.37,1.46s-6.4,3.66-10,3.89c-3.13.2-6.53-1-9.27.57-2,1.14-3.11,3.49-5,4.88s-4.24,1.65-6.52,1.77-4.65.15-6.72,1.1-3.8,3.15-3.37,5.39Z" style="fill:#ebebeb"></path><path d="M108.64,130.55c.54-3.93-5-7.17-9.18-7.5-2-.16-4,.14-5.94-.52-4.08-1.42-5.71-6.69-9.69-8.37-3-1.26-6.41-.14-9.29,1.31s-5.74,3.28-9,3.49c-2.81.18-5.85-.86-8.31.51-1.83,1-2.78,3.13-4.47,4.37s-3.8,1.47-5.85,1.59a16.56,16.56,0,0,0-6,1c-1.86.85-3.4,2.83-3,4.84Z" style="fill:#f5f5f5"></path><path d="M483.38,127.77c.58-4.21-5.36-7.68-9.83-8-2.13-.17-4.34.16-6.36-.55-4.37-1.52-6.12-7.17-10.38-9-3.19-1.34-6.86-.15-9.95,1.41s-6.15,3.51-9.6,3.74c-3,.19-6.27-.93-8.9.54-2,1.09-3,3.35-4.79,4.68s-4.07,1.58-6.26,1.7-4.46.14-6.45,1.06-3.65,3-3.23,5.17Z" style="fill:#f5f5f5"></path></g><g id="freepik--qr-code--inject-64"><polygon points="294.14 220.88 294.14 227.07 300.33 227.07 300.33 220.88 300.33 214.68 294.14 214.68 294.14 220.88" style="fill:#263238"></polygon><rect x="294.14" y="183.73" width="6.19" height="6.19" style="fill:#263238"></rect><rect x="332.4" y="251.89" width="6.19" height="6.19" style="fill:#263238"></rect><polygon points="300.33 196.11 300.33 202.3 294.14 202.3 294.14 208.49 300.33 208.49 300.33 214.68 306.52 214.68 312.72 214.68 312.72 220.88 318.91 220.88 318.91 214.68 325.1 214.68 325.1 208.49 325.1 202.3 318.91 202.3 318.91 208.49 312.72 208.49 306.52 208.49 306.52 202.3 306.52 196.11 306.52 189.92 300.33 189.92 300.33 196.11" style="fill:#263238"></polygon><polygon points="312.72 183.73 306.52 183.73 306.52 189.92 312.72 189.92 318.91 189.92 318.91 183.73 312.72 183.73" style="fill:#263238"></polygon><polygon points="340.58 233.5 343.9 233.5 343.9 227.31 340.58 227.31 337.25 227.31 337.25 233.5 340.58 233.5" style="fill:#263238"></polygon><rect x="318.91" y="189.92" width="6.19" height="6.19" style="fill:#263238"></rect><rect x="362.25" y="214.68" width="6.19" height="6.19" style="fill:#263238"></rect><rect x="368.44" y="146.58" width="6.19" height="6.19" style="fill:#263238"></rect><polygon points="337.48 196.11 337.48 189.92 343.67 189.92 343.67 183.73 337.48 183.73 337.48 177.54 331.29 177.54 331.29 183.73 325.1 183.73 325.1 189.92 331.29 189.92 331.29 196.11 331.29 202.3 331.29 208.49 331.29 214.68 337.48 214.68 337.48 208.49 337.48 202.3 343.67 202.3 343.67 196.11 337.48 196.11" style="fill:#263238"></polygon><polygon points="368.44 258.02 374.63 258.02 374.63 251.83 368.44 251.83 362.25 251.83 362.25 258.02 368.44 258.02" style="fill:#263238"></polygon><rect x="356.06" y="146.58" width="6.19" height="6.19" style="fill:#263238"></rect><polygon points="360.7 196.11 360.7 189.92 354.51 189.92 354.51 183.73 348.32 183.73 348.32 189.92 348.32 196.11 342.13 196.11 342.13 202.3 348.32 202.3 354.51 202.3 354.51 196.11 360.7 196.11" style="fill:#263238"></polygon><rect x="389.45" y="183.73" width="6.19" height="6.19" style="fill:#263238"></rect><rect x="325.28" y="214.68" width="6.19" height="6.19" style="fill:#263238"></rect><polygon points="356.06 177.54 356.06 171.35 362.25 171.35 362.25 165.15 368.44 165.15 374.63 165.15 374.63 158.96 368.44 158.96 368.44 152.77 362.25 152.77 362.25 158.96 356.06 158.96 356.06 165.15 349.86 165.15 349.86 171.35 343.67 171.35 343.67 177.54 349.86 177.54 356.06 177.54" style="fill:#263238"></polygon><polygon points="356.06 220.88 356.06 214.68 362.25 214.68 362.25 208.49 356.06 208.49 349.86 208.49 349.86 214.68 343.67 214.68 343.67 220.88 349.86 220.88 356.06 220.88" style="fill:#263238"></polygon><polygon points="374.63 245.64 374.63 239.44 368.44 239.44 362.25 239.44 362.25 233.25 356.06 233.25 356.06 239.44 349.86 239.44 349.86 245.64 343.67 245.64 337.48 245.64 337.48 251.83 343.67 251.83 349.86 251.83 356.06 251.83 356.06 245.64 362.25 245.64 362.25 251.83 368.44 251.83 368.44 245.64 374.63 245.64" style="fill:#263238"></polygon><polygon points="349.86 152.77 349.86 146.58 343.67 146.58 337.48 146.58 337.48 152.77 331.29 152.77 331.29 158.96 337.48 158.96 343.67 158.96 343.67 152.77 349.86 152.77" style="fill:#263238"></polygon><rect x="343.67" y="158.96" width="6.19" height="6.19" style="fill:#263238"></rect><polygon points="365.34 183.73 359.15 183.73 359.15 189.92 359.15 196.11 359.15 202.3 365.34 202.3 371.53 202.3 371.53 196.11 365.34 196.11 365.34 189.92 371.53 189.92 371.53 183.73 377.72 183.73 377.72 177.54 371.53 177.54 371.53 171.35 365.34 171.35 365.34 177.54 365.34 183.73" style="fill:#263238"></polygon><rect x="337.48" y="165.15" width="6.19" height="6.19" style="fill:#263238"></rect><polygon points="362.25 227.07 362.25 233.26 368.44 233.26 374.63 233.26 374.63 227.07 380.82 227.07 387.01 227.07 387.01 220.88 380.82 220.88 374.63 220.88 368.44 220.88 368.44 227.07 362.25 227.07" style="fill:#263238"></polygon><rect x="389.45" y="202.3" width="6.19" height="6.19" style="fill:#263238"></rect><rect x="368.44" y="208.49" width="6.19" height="6.19" style="fill:#263238"></rect><polygon points="390.11 189.92 383.92 189.92 377.72 189.92 377.72 196.11 383.92 196.11 383.92 202.3 390.11 202.3 390.11 196.11 390.11 189.92" style="fill:#263238"></polygon><rect x="380.82" y="208.49" width="6.19" height="6.19" style="fill:#263238"></rect><path d="M318.91,245.76h18.58V220.87H312.6v6.2h-6.07v6.19h6.07v6.19h-6.07v6.19h6.07v.12h.12v6.07h-6.19v12.38h6.19V258h6.19V245.76Zm13.81-20.13v15.48H317.24V225.63Z" style="fill:#263238"></path><polygon points="399.39 220.88 405.58 220.88 405.58 214.68 399.39 214.68 393.2 214.68 387.01 214.68 387.01 220.88 393.2 220.88 399.39 220.88" style="fill:#263238"></polygon><polygon points="399.39 196.11 405.58 196.11 405.58 189.92 405.58 183.73 399.39 183.73 399.39 189.92 399.39 196.11" style="fill:#263238"></polygon><polygon points="350.1 227.31 343.9 227.31 343.9 233.5 343.9 239.69 350.1 239.69 350.1 233.5 350.1 227.31" style="fill:#263238"></polygon><rect x="405.58" y="220.88" width="6.19" height="6.19" style="fill:#263238"></rect><polygon points="411.78 208.49 411.78 202.3 405.58 202.3 405.58 208.49 405.58 214.68 411.78 214.68 411.78 208.49" style="fill:#263238"></polygon><polygon points="300.33 251.83 294.14 251.83 294.14 258.02 294.14 264.21 300.33 264.21 300.33 258.02 300.33 251.83" style="fill:#263238"></polygon><path d="M411.78,177.54v-31h-31v31Zm-26.32-4.65V151.22h21.67v21.67Z" style="fill:#263238"></path><rect x="390.11" y="155.87" width="12.38" height="12.38" style="fill:#263238"></rect><path d="M411.78,233.26h-31v30.95h31Zm-26.32,26.31V237.9h21.67v21.67Z" style="fill:#263238"></path><rect x="390.11" y="242.54" width="12.38" height="12.38" style="fill:#263238"></rect><path d="M294.07,146.58v31H325v-31Zm26.31,4.64v21.67H298.71V151.22Z" style="fill:#263238"></path><rect x="303.35" y="155.87" width="12.38" height="12.38" style="fill:#263238"></rect><path d="M285.24,168.16v-22a8.09,8.09,0,0,1,1.74-5.6,7.63,7.63,0,0,1,6-2.5h23.12a.69.69,0,0,0,0-1.38H293.26a9.7,9.7,0,0,0-5.51,1.39,8.75,8.75,0,0,0-3.9,7.22c-.06,3.62,0,7.25,0,10.86v12a.7.7,0,0,0,1.39,0Z" style="fill:#FF725E"></path><path d="M314.1,274.67h-22a8.14,8.14,0,0,1-5.6-1.74,7.65,7.65,0,0,1-2.5-6V243.78a.69.69,0,0,0-1.38,0v22.87a9.72,9.72,0,0,0,1.39,5.51,8.73,8.73,0,0,0,7.22,3.89c3.62.06,7.24,0,10.86,0h12a.69.69,0,0,0,0-1.38Z" style="fill:#FF725E"></path><path d="M419.94,243.56v22a8.09,8.09,0,0,1-1.74,5.6,7.62,7.62,0,0,1-6,2.5H389.05a.69.69,0,0,0,0,1.38h22.87a9.7,9.7,0,0,0,5.51-1.39,8.73,8.73,0,0,0,3.89-7.22c.07-3.62,0-7.24,0-10.86v-12a.69.69,0,0,0-1.38,0Z" style="fill:#FF725E"></path><path d="M389.45,138.07h22a8.09,8.09,0,0,1,5.6,1.75,7.58,7.58,0,0,1,2.5,6V169a.69.69,0,0,0,1.38,0V146.1a9.73,9.73,0,0,0-1.39-5.52,8.73,8.73,0,0,0-7.22-3.89c-3.62-.06-7.24,0-10.86,0h-12a.69.69,0,0,0,0,1.38Z" style="fill:#FF725E"></path></g></svg>